<svg viewBox="0 0 62 56" aria-hidden="true" xmlns="http://www.w3.org/2000/svg"><path d="M.3 28.6c3.9.2 7.7 3.3 9.2 7.1-3-.7-6-2.1-7.9-5.1-.4-.7-.9-1.3-1.3-2m.9-7.1C5 22.8 7.3 27.1 7.6 31c-2.5-1.3-4.8-3.8-5.7-6.5-.3-1-.4-2.1-.7-3m.2-7.5c3.4 2.3 5.6 6 5.2 10.2h-.1c-3.4-2.5-5-6.1-5.1-10.2m4.2-6.4h.1c2 3.3 3.3 7.8 1.7 11.8-2.5-3.2-3.7-8-1.8-11.8m-.4 28.1c4.2 0 8.1 3 9.8 7-3.9-.8-8.2-2.7-9.8-7M18 45.6c-.6.4-1.5.5-2.2.7-3.7.5-7-.8-10-2.5 3.8-2.2 8.9-.7 12.2 1.8m-6-29.3.1.2c-.1 3.3-.9 6.4-3.3 8.6-.5.4-.9 1-1.3 1.3-.4-4.1.8-8.2 4.5-10.1M10.2 1.8c.8 2.3 1.4 4.8.8 7.4-.3 1.5-.9 2.8-1.7 4.2-1.7-3.4-1.6-8.5.9-11.6m7.2 7.1c-1.3 2.8-3.5 5.9-6.4 7.2-.8.3-1.6.6-2.4 1.1 1.2-3.9 4.6-8.1 8.8-8.3m-8 17c2.7 2.8 3.1 7.5 2 11.2-2.5-2.9-3.7-7.4-2-11.2m7.1-24.7 1.1-1c.1 4.3-2.2 8.4-6.1 10.3l-.1-.1c.7-3.5 1.9-7 5.1-9.2M23 47.3c.4.2.8.3 1 .7-3.3 2.4-8.3 2.3-12.1 1 3.1-2.1 7.3-2.9 11.1-1.7m-3.8-2.9c0 .3.1.5 0 .8-4-2-5.7-6.6-6.3-10.8 3.8 1.8 5.8 6 6.3 10M30.3 50l.4.1c4.2-1.6 10.3-2.4 13.7 1.2-3.3 1.3-7.5.5-10.6-.9-.6-.2-1.3-.6-1.9-.2-.1.1-.3.1-.3.3 1.5 1.2 2.5 3.1 4.1 4.1-.2.2-.3.5-.6.6-2.3-.7-2.2-3.7-4.5-4.5-.8.2-1.4 1-2 1.6-.7.8-1.3 1.8-2 2.6-.4.1-.8-.2-1.1-.5l.2-.3c1.3-1.3 2.7-2.4 4-3.6.1-.2-.1-.3-.2-.4h-.6c-3.2 1.5-7 3.5-10.6 1.6 3.2-2.8 8.2-3.4 12-1.7"/><path d="M19.7 41.6c4.1.2 7.6 3.4 9.3 7.1-.5.1-1.1-.1-1.5-.2-3.3-.7-6.3-3.7-7.8-6.9m22.2-.4c-1.4 4.3-6 6.8-9.9 7.7 1.6-4.3 5.9-6.9 9.9-7.7m7.4 6c.3.2.7.3.9.6-3.6 1.2-8.5 2.4-12-.1 3-2.5 7.9-2.3 11.1-.5M41.7.7c3.5 1.4 5.9 5.1 6.4 8.8C44.7 8.3 42 4.4 41.6.8zm.9 7.4c3.8.5 7.4 3.1 9.1 6.9-3.8-.5-7.5-2.9-9.1-6.9m5.3 26.6c.2-.1.4-.4.7-.5.3 4.5-2.3 8.6-6.1 10.5h-.1c.5-4 2-7.9 5.5-10M56 42c-3.1 3.3-7.6 3.8-12 3 3.1-3.3 7.7-3.9 12-3M48.8 0c2.4 3 3.1 7.8 1.2 11.4-2.3-3.1-2.6-7.8-1.2-11.4m8.6 33.6c-.2 1-.9 1.8-1.4 2.7-2 3.2-5.2 4.6-8.4 5.4 1.3-4.3 5.9-7 9.8-8.1m-9.2-18.8c3.6 1.8 6 5.6 5.8 9.8-3.6-1.9-5.3-5.9-5.8-9.8m3.6 9.1c1 1.9 1.2 4.6.7 6.9q-.75 3.15-2.7 5.7c-1.5-4.2 0-9 2-12.6m.9-18.4c2.6 3.3 2.7 8.6 1 12.2-.7-1-1-2.2-1.5-3.4-.8-2.7-.8-6.4.5-8.8m6.2 21.7c.8-.2 1.6-.5 2.5-.7-1.5 3.9-5.4 7.9-9.6 8 1.3-3 4-6.2 7.1-7.3m-3-4.7c.9-1.2 2.1-2.2 3.3-3.1.3 4.4-2.1 8.2-5.7 10.6h-.1c.1-2.8.8-5.3 2.5-7.5m2.9-11.9c.8 4-.1 8.2-3.1 10.9l-.9.8c-.6-2.9 0-6.1 1.3-8.6.6-1.1 1.6-2.2 2.7-3.1"/></svg>
